<?xml version="1.0" encoding="UTF-8"?>
<svg version="1.1" xmlns="http://www.w3.org/2000/svg" width="150" height="50">
<path d="M0 0 C2.82424288 2.19022918 4.41508603 3.83017207 6 7 C6.37414872 12.61223087 6.16077934 16.14594602 3 21 C-0.77233632 24.43683569 -3.64897987 24.50163257 -8.5859375 24.36328125 C-11.96846396 23.85426028 -13.72322234 22.49711098 -16 20 C-18.09555583 15.80888835 -17.55842023 10.55233879 -17 6 C-12.37834237 -0.20275103 -7.41013515 -1.07190634 0 0 Z M-12 5 C-13.67778312 7.19418437 -13.67778312 7.19418437 -14 10 C-12.83766994 13.96559669 -11.84837497 16.30790463 -8.625 18.9375 C-5.74890612 20.10163324 -4.05846578 20.56340159 -1 20 C1.04826062 18.52040427 1.04826062 18.52040427 2 16 C2.16025399 12.45421315 2.16025399 12.45421315 1 9 C-1.41880929 6.73122465 -1.41880929 6.73122465 -4 5 C-4.33 4.01 -4.66 3.02 -5 2 C-8.02328074 2 -9.58150979 3.2465946 -12 5 Z " fill="#504F4F" transform="translate(18,20)"/>
<path d="M0 0 C0.99 0 1.98 0 3 0 C3 2.64 3 5.28 3 8 C4.0828125 7.6596875 4.0828125 7.6596875 5.1875 7.3125 C8 7 8 7 10.8125 8.0625 C13 10 13 10 13.375 13.125 C13 16 13 16 12 17 C6.16573034 17.56460674 6.16573034 17.56460674 4 17 C1.08648606 13.38299522 0.5631232 10.24884221 0.3125 5.6875 C0.24675781 4.61886719 0.18101563 3.55023437 0.11328125 2.44921875 C0.07589844 1.64097656 0.03851563 0.83273438 0 0 Z M5 10 C5 11.32 5 12.64 5 14 C6.65 14.33 8.3 14.66 10 15 C10 13.68 10 12.36 10 11 C8.35 10.67 6.7 10.34 5 10 Z " fill="#000100" transform="translate(45,20)"/>
<path d="M0 0 C2.05078125 0.03255208 4.1015625 0.06510417 6.15234375 0.09765625 C6.83260012 2.09307493 7.49724872 4.09383616 8.15234375 6.09765625 C8.39984375 6.84015625 8.64734375 7.58265625 8.90234375 8.34765625 C9.02609375 9.21390625 9.02609375 9.21390625 9.15234375 10.09765625 C7.15234375 12.09765625 7.15234375 12.09765625 5.27734375 12.328125 C4.57609375 12.31394531 3.87484375 12.29976562 3.15234375 12.28515625 C2.45109375 12.27871094 1.74984375 12.27226563 1.02734375 12.265625 C-0.84765625 12.09765625 -0.84765625 12.09765625 -2.84765625 11.09765625 C-2.84765625 10.10765625 -2.84765625 9.11765625 -2.84765625 8.09765625 C1.60734375 9.08765625 1.60734375 9.08765625 6.15234375 10.09765625 C5.82234375 9.43765625 5.49234375 8.77765625 5.15234375 8.09765625 C2.83828155 7.36689977 0.50405506 6.69627367 -1.84765625 6.09765625 C-2.22984392 4.44150968 -2.56160727 2.77308601 -2.84765625 1.09765625 C-1.84765625 0.09765625 -1.84765625 0.09765625 0 0 Z M0.15234375 2.09765625 C0.15234375 2.75765625 0.15234375 3.41765625 0.15234375 4.09765625 C1.47234375 4.42765625 2.79234375 4.75765625 4.15234375 5.09765625 C4.15234375 4.10765625 4.15234375 3.11765625 4.15234375 2.09765625 C2.83234375 2.09765625 1.51234375 2.09765625 0.15234375 2.09765625 Z " fill="#000000" transform="translate(128.84765625,24.90234375)"/>
<path d="M0 0 C3.625 -0.1875 3.625 -0.1875 7 0 C7.33 1.98 7.66 3.96 8 6 C6.02 6.99 4.04 7.98 2 9 C4.31 9 6.62 9 9 9 C8.67 9.99 8.34 10.98 8 12 C1.9453125 12.1953125 1.9453125 12.1953125 0 12 C-2 10 -2 10 -2.25 6.5625 C-2 3 -2 3 0 0 Z M2 2 C1.67 2.99 1.34 3.98 1 5 C2.65 4.67 4.3 4.34 6 4 C5.67 3.34 5.34 2.68 5 2 C4.01 2 3.02 2 2 2 Z " fill="#000000" transform="translate(116,25)"/>
<path d="M0 0 C3.625 -0.1875 3.625 -0.1875 7 0 C7.33 1.98 7.66 3.96 8 6 C6.02 6.99 4.04 7.98 2 9 C4.31 9 6.62 9 9 9 C8.67 9.99 8.34 10.98 8 12 C1.9453125 12.1953125 1.9453125 12.1953125 0 12 C-2 10 -2 10 -2.25 6.5625 C-2 3 -2 3 0 0 Z M2 2 C1.67 2.99 1.34 3.98 1 5 C2.65 4.67 4.3 4.34 6 4 C5.67 3.34 5.34 2.68 5 2 C4.01 2 3.02 2 2 2 Z " fill="#000000" transform="translate(61,25)"/>
<path d="M0 0 C0 1.65 0 3.3 0 5 C-0.66 5 -1.32 5 -2 5 C-2 4.01 -2 3.02 -2 2 C-5.68547548 3.16229076 -5.68547548 3.16229076 -8.375 5.8125 C-9.1508614 8.5280149 -8.74778098 10.30798849 -8 13 C-4.62182575 13.84454356 -2.32534757 14.10844919 1 13 C0.34 14.32 -0.32 15.64 -1 17 C-8.48553179 17.36814091 -8.48553179 17.36814091 -10.73046875 15.76171875 C-12.74262457 12.96946559 -12.5357795 10.57860154 -12.41015625 7.23046875 C-12 5 -12 5 -9.9375 1.9375 C-6.35587659 -0.42484735 -4.20965814 -0.41271158 0 0 Z " fill="#000000" transform="translate(83,20)"/>
<path d="M0 0 C0.66 0 1.32 0 2 0 C3.65 3.96 5.3 7.92 7 12 C8.32 8.04 9.64 4.08 11 0 C11.66 0 12.32 0 13 0 C12.69343615 6.62177926 11.25711277 11.22125154 8 17 C5 16 5 16 3.61328125 13.41796875 C3.18402344 12.35191406 2.75476563 11.28585938 2.3125 10.1875 C1.87550781 9.12917969 1.43851563 8.07085937 0.98828125 6.98046875 C0 4 0 4 0 0 Z " fill="#000000" transform="translate(26,21)"/>
<path d="M0 0 C3.625 -0.1875 3.625 -0.1875 7 0 C7.33 1.32 7.66 2.64 8 4 C7.01 4.495 7.01 4.495 6 5 C5.67 4.34 5.34 3.68 5 3 C4.01 3 3.02 3 2 3 C1.61781233 4.65614657 1.28604898 6.32457024 1 8 C2.96822886 9.96822886 6.34808709 9.66248381 9 10 C9 10.66 9 11.32 9 12 C7.54207116 12.05399736 6.08357288 12.09279177 4.625 12.125 C3.81289062 12.14820313 3.00078125 12.17140625 2.1640625 12.1953125 C0 12 0 12 -2 10 C-2.31537716 5.66356399 -2.44897847 3.67346771 0 0 Z " fill="#000000" transform="translate(100,25)"/>
<path d="M0 0 C2.64 0 5.28 0 8 0 C7.67 0.99 7.34 1.98 7 3 C6.01 3 5.02 3 4 3 C4 5.97 4 8.94 4 12 C3.01 11.67 2.02 11.34 1 11 C-0.28317892 7.15046324 -0.06643637 4.05261865 0 0 Z " fill="#000000" transform="translate(90,25)"/>
<path d="M0 0 C0.66 0 1.32 0 2 0 C2.33 6.27 2.66 12.54 3 19 C2.34 19 1.68 19 1 19 C-0.25433458 15.23699626 -0.10695422 11.72789091 -0.0625 7.8125 C-0.05798828 7.06291016 -0.05347656 6.31332031 -0.04882812 5.54101562 C-0.03706354 3.69397617 -0.01912865 1.84697787 0 0 Z " fill="#000000" transform="translate(110,18)"/>
<path d="M0 0 C0.99 0 1.98 0 3 0 C3.33 3.96 3.66 7.92 4 12 C3.01 12 2.02 12 1 12 C0.67 8.04 0.34 4.08 0 0 Z " fill="#000000" transform="translate(40,25)"/>
<path d="M0 0 C0.66 0 1.32 0 2 0 C2.96070434 2.88211302 3.10581883 4.69850044 3.0625 7.6875 C3.05347656 8.49574219 3.04445313 9.30398437 3.03515625 10.13671875 C3.02355469 10.75160156 3.01195313 11.36648437 3 12 C2.34 12 1.68 12 1 12 C-0.3271261 8.0186217 -0.06915913 4.14954773 0 0 Z " fill="#000000" transform="translate(85,25)"/>
<path d="M0 0 C0.99 0.33 1.98 0.66 3 1 C3 1.66 3 2.32 3 3 C2.01 3 1.02 3 0 3 C0 2.01 0 1.02 0 0 Z " fill="#000000" transform="translate(85,19)"/>
<path d="M0 0 C0.99 0.33 1.98 0.66 3 1 C3 1.66 3 2.32 3 3 C2.01 3 1.02 3 0 3 C0 2.01 0 1.02 0 0 Z " fill="#000000" transform="translate(40,19)"/>
</svg>
